<svg xmlns="http://www.w3.org/2000/svg" width="64" height="64" viewBox="0 0 64 64">
  <rect width="64" height="64" fill="#2E0854"/>
  <g fill="#FFFF00">
    <polygon points="8,4 9,7 12,7 10,9 11,12 8,10 5,12 6,9 4,7 7,7"/>
    <polygon points="48,20 49,23 52,23 50,25 51,28 48,26 45,28 46,25 44,23 47,23"/>
    <polygon points="24,40 25,42 27,42 25,44 26,46 24,45 22,46 23,44 21,42 23,42"/>
  </g>
  <g fill="#FF00FF">
    <rect x="32" y="8" width="2" height="2"/>
    <rect x="16" y="28" width="2" height="2"/>
    <rect x="56" y="48" width="2" height="2"/>
    <rect x="4" y="52" width="2" height="2"/>
  </g>
  <g fill="#00FFFF">
    <rect x="40" y="4" width="2" height="2"/>
    <rect x="8" y="36" width="2" height="2"/>
    <rect x="52" y="32" width="2" height="2"/>
    <rect x="36" y="56" width="2" height="2"/>
  </g>
  <g fill="#00FF00">
    <rect x="20" y="16" width="1" height="1"/>
    <rect x="60" y="12" width="1" height="1"/>
    <rect x="12" y="60" width="1" height="1"/>
    <rect x="44" y="44" width="1" height="1"/>
  </g>
</svg>
