<svg xmlns="http://www.w3.org/2000/svg" width="80" height="80" viewBox="0 0 80 80">
  <defs>
    <linearGradient id="sky2" x1="0" y1="0" x2="0" y2="1">
      <stop offset="0%" stop-color="#FF6699"/>
      <stop offset="60%" stop-color="#FF9966"/>
      <stop offset="100%" stop-color="#FFCC66"/>
    </linearGradient>
  </defs>
  <rect width="80" height="80" fill="url(#sky2)"/>
  <circle cx="56" cy="28" r="10" fill="#FFFF00"/>
  <g stroke="#FFFF00" stroke-width="1.5">
    <line x1="56" y1="10" x2="56" y2="16"/>
    <line x1="56" y1="40" x2="56" y2="46"/>
    <line x1="38" y1="28" x2="44" y2="28"/>
    <line x1="68" y1="28" x2="74" y2="28"/>
  </g>
  <polygon points="0,60 18,34 28,50 44,28 60,54 80,40 80,80 0,80" fill="#663399" stroke="#000" stroke-width="1"/>
  <polygon points="18,34 22,38 14,44" fill="#FFFFFF"/>
  <polygon points="44,28 50,34 38,40" fill="#FFFFFF"/>
  <rect x="0" y="66" width="80" height="14" fill="#004488"/>
  <g font-family="Impact, Arial Black" font-weight="bold" text-anchor="middle">
    <text x="40" y="76" font-size="9" fill="#FFFF00">SLC LAN PARTY</text>
  </g>
  <rect x="0" y="0" width="80" height="80" fill="none" stroke="#000" stroke-width="2"/>
</svg>
